PathFileType	4	(X/Y/Z)	Patient4_TMGait_0pt5_02_left_11.trc.trc
DataRate	CameraRate	NumFrames	NumMarkers	Units	OrigDataRate	OrigDataStartFrame	OrigNumFrames
76.086956521739	76.086956521739	4	33	mm	76.086956521739	106	       141
Frame#	Time	Sacral			L.Shoulder			Chest			R.Shoulder			Neck			R.ASIS			L.ASIS			R.Thigh.Superior			R.Thigh.Lateral			R.Thigh.Inferior			R.Patella			L.Thigh.Superior			L.Thigh.Lateral			L.Thigh.Inferior			L.Patella			L.Shank.Superior			L.Shank.Lateral			L.Shank.Inferior			R.Shank.Superior			R.Shank.Lateral			R.Shank.Inferior			R.Heel			R.Midfoot.Superior			R.Midfoot.Lateral			R.Toe			L.Heel			L.Midfoot.Lateral			L.Midfoot.Superior			L.Toe			L.Elbow			L.Wrist			R.Elbow			R.Wrist			
		X1	Y1	Z1	X2	Y2	Z2	X3	Y3	Z3	X4	Y4	Z4	X5	Y5	Z5	X6	Y6	Z6	X7	Y7	Z7	X8	Y8	Z8	X9	Y9	Z9	X10	Y10	Z10	X11	Y11	Z11	X12	Y12	Z12	X13	Y13	Z13	X14	Y14	Z14	X15	Y15	Z15	X16	Y16	Z16	X17	Y17	Z17	X18	Y18	Z18	X19	Y19	Z19	X20	Y20	Z20	X21	Y21	Z21	X22	Y22	Z22	X23	Y23	Z23	X24	Y24	Z24	X25	Y25	Z25	X26	Y26	Z26	X27	Y27	Z27	X28	Y28	Z28	X29	Y29	Z29	X30	Y30	Z30	X31	Y31	Z31	X32	Y32	Z32	X33	Y33	Z33	

106	15.110000000000	561.203199658618	1016.068151153796	550.648581865077	742.740628109524	1440.411359028562	368.376015946456	856.528730195340	1360.830911223294	517.392901146016	794.006932303501	1435.847365641863	700.336902874100	760.010473178006	1497.179252406174	519.986808592496	792.745146627871	940.160431873939	651.199835511469	762.199108524416	966.413996115963	378.880618488490	821.355795009672	737.900403521299	618.131343729087	738.811631958180	633.479407265015	679.349396532504	808.808819724290	579.140516009664	593.901200476710	805.875646525539	492.537657230356	597.447124240311	845.256067787373	787.624463986530	403.726465046021	800.249362311350	662.319168542232	324.727465816858	903.402882198582	600.424368931980	383.904572402016	923.998130823436	520.062026407541	376.577539406818	880.903186520177	445.606460222714	366.435758930434	767.713634546388	356.631216747950	311.250683514582	803.031877649310	230.594604340626	364.886103853896	779.225733366048	404.596382628870	604.330827304746	710.719486037080	299.721011026476	666.917563427518	749.030748397796	206.737683219976	598.988918419711	612.770330800886	42.893694664677	569.122357838106	785.410810963593	96.889945999949	599.985241215026	698.475435304847	36.049885164675	641.570947876928	906.271454428785	43.820282636451	622.922778270486	651.135623015294	96.112602929427	394.535759657890	723.332842721155	81.751201995725	314.957153166738	815.791134242409	128.272638687938	340.969634715305	930.871397654150	58.212132687579	311.832571657361	662.739108771243	1090.982217754128	261.076116155287	698.552742053938	832.698438397320	242.625623622106	864.917291378206	1106.459421029813	830.339999106447	1101.102916720929	1029.680265899304	762.531546560490	
107	15.123142857143	559.669256769251	1016.555777819863	551.945773899905	741.350777176894	1440.421356046571	369.072735093674	855.881091359840	1360.284508595782	517.222639628749	794.970707966772	1435.522998871311	700.568166801171	759.742573904466	1497.006826941961	520.596798842882	791.255073558332	939.876245512622	651.342161223450	759.746697566007	966.378860022363	379.015807638358	818.142045304487	737.357659973802	618.107854497054	735.187121756927	633.356141423437	679.792785974780	804.437587632687	578.552986309019	594.148715558314	800.898085956214	492.099317018418	597.794885076954	841.811033288822	787.363130851142	403.590778099172	796.596622690554	662.436970549085	324.059294044760	899.200104337136	600.284628751095	383.821979082822	921.111149024163	522.185775215794	376.295240081964	882.118215716155	447.661028350296	365.408600544196	775.404352675332	351.799239748514	309.230211403015	818.924971658192	227.927793675549	362.632494691125	773.937320271082	404.269507025325	604.564634248675	705.049049701240	299.633666914528	667.063981985266	742.950667350735	206.545614613011	599.075146755650	606.176399402304	42.932600717018	569.128845526360	778.824830151680	96.825030897115	600.008091498529	691.870285824905	36.044101078100	641.582986376777	899.675946143946	43.634187551763	622.957947219688	676.357880456314	83.409743798868	391.560581612002	749.637855327525	74.088691460173	312.067948679675	838.810703382842	126.474446428701	338.395687895300	958.390958512715	64.224930859220	309.374602839465	655.180861483816	1092.603068817149	261.822227900487	682.496179266842	833.501348190084	243.508513600109	873.530758176040	1108.746284851108	829.965390531008	1112.007723064138	1046.098995505164	757.597463191581	
108	15.136285714286	558.243690222174	1016.932694578043	553.025067318346	740.113168012837	1440.438119799771	369.655706672603	855.249469155467	1359.693379655110	517.010286041699	795.758021118166	1435.071125930158	700.697805226293	759.479054551879	1496.779670627054	521.133287856493	789.852317872485	939.596199974481	651.375271767330	757.428829765305	966.168451138155	379.022861109378	815.136489239503	736.819826737848	618.110155208851	731.692993744616	633.215659158569	680.153370124902	800.277097062972	577.948845502025	594.399964386643	796.108255050529	491.631842527269	598.108125267643	838.065617422618	786.556692755814	403.451915950895	792.596947185274	662.206562063016	323.226657252458	894.455492758905	599.588990405533	383.784635604432	917.592200036778	523.854704499758	376.065855915038	882.688933088076	449.579547186321	364.415647155860	782.876070872999	347.236559646043	307.178744774200	834.313759984101	226.076824185428	360.526788263417	768.790455968172	403.921318320761	604.749769101513	699.474095481782	299.557627598347	667.162378839183	736.936366039811	206.338288842907	599.137370985627	599.579740458851	42.984806195010	569.139455788409	772.239918470975	96.754394087887	600.016628341844	685.267237721870	36.042153893672	641.587379627070	893.085531865597	43.429501264311	622.993240268556	701.469032985115	72.353606987402	388.711440261860	775.703768526783	67.754212565727	309.458377036809	861.318052983045	125.702821842154	336.104620486088	984.886630320404	71.142595565063	307.589616668072	647.695112250605	1094.455615144424	262.269019022028	667.407277572839	834.825109799169	244.556369170957	881.836640559671	1110.946223436922	829.149447358423	1121.696393189412	1062.487693925211	752.409320326958	
109	15.149428571429	556.922835819829	1017.208333881470	553.882545887753	739.012159361354	1440.473155286625	370.111981310929	854.623089629884	1359.087870536307	516.749770778222	796.348475703670	1434.525128513802	700.718831549577	759.201147697099	1496.515985446633	521.581274948075	788.552656023090	939.339022622429	651.297995696847	755.248405233178	965.808251705019	378.908935321086	812.329374594128	736.290985992119	618.120628520963	728.310140766492	633.069150937826	680.421514702308	796.288800146596	577.331975100211	594.638987685529	791.462766336503	491.143595487225	598.370374652223	834.111217475723	785.299699122533	403.313213921260	788.395140618021	661.701389265588	322.245477679742	889.373937516382	598.461298106595	383.751517633991	913.619109217110	525.118067525782	375.866343728177	882.699516574000	451.373534812882	363.456385822660	789.987271229817	343.086023138817	305.190449121036	848.904813168292	225.093652180736	358.628120553702	763.752024492327	403.563140408250	604.879512928584	693.970279735146	299.499953696380	667.212951889501	730.971212781376	206.126173980205	599.174360071989	592.978521994974	43.047318739513	569.154799219801	765.652217860541	96.680250429186	600.009891618517	678.664031160273	36.043999679860	641.584647743117	886.496966993614	43.217083185565	623.027519526123	725.893315326367	63.194293201882	386.161009921297	800.939062738771	62.836169763808	307.259507259324	882.863516435815	125.929596242498	334.141140450515	1009.849052334166	78.711150409819	306.465148290490	640.340862512795	1096.524390090173	262.456282511021	653.312085064875	836.562374876009	245.772451813449	889.781891072501	1113.058143237627	827.881651867895	1130.149807028159	1078.735242687647	747.018414101119	
